<svg xmlns="http://www.w3.org/2000/svg" height="40" viewBox="0 -960 960 960" width="40"><path d="M440.667-269.333h83.999v-165.334h166.001v-83.999H524.666v-172.001h-83.999v172.001H269.333v83.999h171.334v165.334Zm39.205 210.666q-87.157 0-163.841-33.353-76.684-33.354-133.671-90.34-56.986-56.987-90.34-133.808-33.353-76.821-33.353-164.165 0-87.359 33.412-164.193 33.413-76.834 90.624-134.057 57.211-57.224 133.757-89.987t163.578-32.763q87.394 0 164.429 32.763 77.034 32.763 134.117 90 57.082 57.237 89.916 134.292 32.833 77.056 32.833 164.49 0 87.433-32.763 163.67-32.763 76.236-89.987 133.308-57.223 57.073-134.261 90.608-77.037 33.535-164.45 33.535Z"/></svg>