<svg xmlns="http://www.w3.org/2000/svg" height="40" viewBox="0 -960 960 960" width="40"><path d="M480.174-58.667q-88.481 0-165.654-32.687-77.173-32.686-133.826-89.34-56.654-56.653-89.34-133.826Q58.667-391.693 58.667-480q0-88.388 32.746-165.541 32.745-77.152 89.499-133.972 56.755-56.82 133.672-89.32 76.917-32.5 165.704-32.5 74.002 0 138.866 22.458 64.864 22.459 118.18 63.209l-60.333 60.333q-41.748-28.981-91.469-45.491-49.721-16.51-105.532-16.51-142.667 0-240 97.334-97.334 97.333-97.334 240T240-240q97.333 97.334 240 97.334 34.429 0 66.581-6.479 32.153-6.478 61.419-18.521l64.333 64.332q-43.75 21.239-91.815 32.953-48.065 11.714-100.344 11.714Zm278.16-99.667v-120h-120v-83.999h120v-120h83.999v120h120v83.999h-120v120h-83.999ZM422-284 242-464.667l60.667-60.666L422-405.999l418.667-418.667L902-764 422-284Z"/></svg>