<svg xmlns="http://www.w3.org/2000/svg" height="40" viewBox="0 -960 960 960" width="40"><path d="M217.333-133.334q-35.333 0-59.666-24.333t-24.333-59.666q0-35.333 24.333-59.667 24.333-24.333 59.666-24.333T277-277q24.333 24.334 24.333 59.667T277-157.667q-24.334 24.333-59.667 24.333Zm0-262.666q-35.333 0-59.666-24.334-24.333-24.333-24.333-59.666t24.333-59.666Q182-564 217.333-564T277-539.666q24.333 24.333 24.333 59.666T277-420.334Q252.666-396 217.333-396Zm0-262.667q-35.333 0-59.666-24.333-24.333-24.334-24.333-59.667t24.333-59.666q24.333-24.333 59.666-24.333T277-802.333q24.333 24.333 24.333 59.666T277-683q-24.334 24.333-59.667 24.333Zm262.667 0q-35.333 0-59.666-24.333Q396-707.334 396-742.667t24.334-59.666q24.333-24.333 59.666-24.333t59.666 24.333Q564-778 564-742.667T539.666-683Q515.333-658.667 480-658.667Zm262.667 0q-35.333 0-59.667-24.333-24.333-24.334-24.333-59.667T683-802.333q24.334-24.333 59.667-24.333t59.666 24.333q24.333 24.333 24.333 59.666T802.333-683Q778-658.667 742.667-658.667ZM480.106-396q-34.772 0-59.439-24.561Q396-445.121 396-479.894q0-34.772 24.561-59.439Q445.121-564 479.894-564q34.772 0 59.439 24.561Q564-514.879 564-480.106q0 34.772-24.561 59.439Q514.879-396 480.106-396ZM524-133.334v-135l272.333-271.333 133 135.333-270.333 271H524ZM801.666-372 833-405.334l-37-37L763.666-410l38 38Z"/></svg>