<svg xmlns="http://www.w3.org/2000/svg" height="40" viewBox="0 -960 960 960" width="40"><path d="M192-313q-23.333-39.334-34.333-80.5-11-41.167-11-85.5 0-132 91.5-228.667 91.5-96.666 223.167-104.333h29.667l-66.667-66.667L482-936.333l166 166-166 165.999-58.333-56.333 67.001-67h-28.334q-95.001 6-163.334 77.333Q230.666-579 230.666-479q0 30.333 6.334 57 6.333 26.667 15.666 48.333L192-313ZM477.333-25 311.334-191l165.999-165.999 57 56.332-67.001 67.001h31.001q94.334-5.333 162.667-76.667 68.334-71.333 68.334-172 0-29.667-6-56.334-6-26.666-16.667-49l60.666-60.666q23.334 40 34.667 81.167 11.333 41.166 11.333 84.833 0 132.666-91.5 229.333T498.666-148.667h-31L534.333-82l-57 57Z"/></svg>