<svg xmlns="http://www.w3.org/2000/svg" height="40" viewBox="0 -960 960 960" width="40"><path d="M435.667-60.667q-80-8.333-149-44.5t-119.5-92.667q-50.5-56.499-79-129.333Q59.667-400 59.667-481q0-163.333 107.333-283.166Q274.333-884 436.667-901.333v83.999q-126 18.334-209.501 113.667-83.5 95.334-83.5 222.667t82.667 222.667Q309-163 435.667-144.666v83.999Zm44-206L267-480.333l58.333-58.333L437-426.332v-267.001h84v267.001l112.334-112.334 59.333 58.999-213 213Zm42.666 206v-83.999q45.334-6 87.5-24 42.167-18 78.501-46L749-152.667q-49 39.333-106.5 63.5t-120.167 28.5ZM689.667-748q-37-27.334-79.334-45-42.333-17.667-87.666-24.334v-83.999q62.333 6.667 119.5 30Q699.333-848 749-808.666L689.667-748Zm116 533.333-59.333-58.999q28.333-36.334 45.5-78.834Q809-395 815-440.333h85.333Q892-378 869.166-320.167q-22.833 57.833-63.499 105.5Zm9.333-307Q809-567 791.834-609.5q-17.167-42.5-45.5-78.834l61.999-56.999q40.333 48 63.667 104.5 23.333 56.5 28.333 119.166H815Z"/></svg>