<svg xmlns="http://www.w3.org/2000/svg" height="40" viewBox="0 -960 960 960" width="40"><path d="M194.466-412.001q-28.133 0-47.966-20.033-19.833-20.034-19.833-48.167 0-28.132 20.034-47.965 20.034-19.833 48.166-19.833 28.132 0 47.965 20.033 19.834 20.034 19.834 48.167 0 28.132-20.034 47.965-20.034 19.833-48.166 19.833Zm285.333 0q-28.132 0-47.965-20.033-19.833-20.034-19.833-48.167 0-28.132 20.033-47.965 20.034-19.833 48.167-19.833 28.132 0 47.965 20.033 19.833 20.034 19.833 48.167 0 28.132-20.033 47.965-20.034 19.833-48.167 19.833Zm285.334 0q-28.132 0-47.966-20.033-19.833-20.034-19.833-48.167 0-28.132 20.034-47.965 20.034-19.833 48.166-19.833 28.133 0 47.966 20.033 19.833 20.034 19.833 48.167 0 28.132-20.034 47.965-20.034 19.833-48.166 19.833Z"/></svg>