<svg xmlns="http://www.w3.org/2000/svg" height="40" viewBox="0 -960 960 960" width="40"><path d="M439-102q-128.333-14.667-213.666-111.167Q140-309.667 140-439.333q0-71.001 28.167-135.667 28.167-64.667 80.168-112.334l59.666 59.666q-40.334 34.334-62.168 84.001Q224-494 224-439.333q0 95.667 60.667 166.5Q345.333-202 439-186v84Zm84 0v-84q94.333-15.666 154.5-86.5 60.167-70.833 60.167-166.833 0-106-71.667-181.501-71.667-75.5-177.333-75.5h-12.001l46.667 46.667L464-589.334 315.334-738 464-886.666 523.333-827l-46.667 46.667h12.001Q628.333-780.333 725-680q96.666 100.333 96.666 240.667 0 129.666-85.333 226.166T523-102Z"/></svg>