<svg xmlns="http://www.w3.org/2000/svg" height="40" viewBox="0 -960 960 960" width="40"><path d="M150-145.334v-83.999h119.334l-6-4.667q-58.334-53.666-87-113.166-28.667-59.5-28.667-131.167 0-114.333 69.5-204.833T398-802v88q-75 26.333-120.667 91.167-45.667 64.833-45.667 144.5 0 53 19 95.834 19.001 42.833 53.334 75.166l18 12.001v-106.001h84v255.999H150Zm412.667-12V-246q75.667-25.666 121-90.833T729-482.333q0-42.334-19.666-87.167-19.667-44.834-52.001-79.834L640-664.668v106.001h-84v-255.999h256v83.999H691.999l6 6q58.334 55 86.667 118.167Q813-543.333 813-482.333q0 114.999-69.5 205.499t-180.833 119.5Z"/></svg>