<svg xmlns="http://www.w3.org/2000/svg" height="40" viewBox="0 -960 960 960" width="40"><path d="M277.333-220Q169-220 93.167-295.868q-75.833-75.867-75.833-184.25 0-108.382 75.833-184.132T277.333-740h405.334Q791-740 866.833-664.132q75.833 75.867 75.833 184.25 0 108.382-75.833 184.132T682.667-220H277.333Zm406.079-135.334q51.977 0 88.282-36.384t36.305-88.36q0-51.977-36.383-88.283-36.384-36.305-88.361-36.305-51.977 0-88.282 36.384-36.306 36.384-36.306 88.36 0 51.977 36.384 88.283 36.384 36.305 88.361 36.305Z"/></svg>