<svg xmlns="http://www.w3.org/2000/svg" height="40" viewBox="0 -960 960 960" width="40"><path d="M798.333-103.334 537.667-364q-30.667 25-73.14 38.833-42.472 13.833-87.235 13.833-116.128 0-195.543-79.456-79.415-79.457-79.415-193.833 0-114.377 79.456-193.877Q261.247-858 375.623-858 490-858 569.5-778.531q79.5 79.47 79.5 193.964 0 44.234-13.167 84.9Q622.666-459 596-424.333l262.333 261-60 59.999ZM376-395.333q79.5 0 134.25-55.028T565-584.667q0-79.278-54.691-134.306Q455.618-774 376.059-774q-80.115 0-134.92 55.027-54.806 55.028-54.806 134.306 0 79.278 54.806 134.306Q295.944-395.333 376-395.333ZM333.334-460v-84h-84v-84h84v-83.333h83.999V-628h83.333v84h-83.333v84h-83.999Z"/></svg>