<svg xmlns="http://www.w3.org/2000/svg" height="40" viewBox="0 -960 960 960" width="40"><path d="M217.333-133.334q-35.333 0-59.666-24.333t-24.333-59.666q0-35.333 24.333-59.667 24.333-24.333 59.666-24.333T277-277q24.333 24.334 24.333 59.667T277-157.667q-24.334 24.333-59.667 24.333Zm262.667 0q-35.333 0-59.666-24.333Q396-182 396-217.333T420.334-277q24.333-24.333 59.666-24.333T539.666-277Q564-252.666 564-217.333t-24.334 59.666Q515.333-133.334 480-133.334Zm262.667 0q-35.333 0-59.667-24.333-24.333-24.333-24.333-59.666T683-277q24.334-24.333 59.667-24.333T802.333-277q24.333 24.334 24.333 59.667t-24.333 59.666Q778-133.334 742.667-133.334ZM217.333-396q-35.333 0-59.666-24.334-24.333-24.333-24.333-59.666t24.333-59.666Q182-564 217.333-564T277-539.666q24.333 24.333 24.333 59.666T277-420.334Q252.666-396 217.333-396ZM480-396q-35.333 0-59.666-24.334Q396-444.667 396-480t24.334-59.666Q444.667-564 480-564t59.666 24.334Q564-515.333 564-480t-24.334 59.666Q515.333-396 480-396Zm262.667 0q-35.333 0-59.667-24.334-24.333-24.333-24.333-59.666T683-539.666Q707.334-564 742.667-564t59.666 24.334q24.333 24.333 24.333 59.666t-24.333 59.666Q778-396 742.667-396ZM217.333-658.667q-35.333 0-59.666-24.333-24.333-24.334-24.333-59.667t24.333-59.666q24.333-24.333 59.666-24.333T277-802.333q24.333 24.333 24.333 59.666T277-683q-24.334 24.333-59.667 24.333Zm262.667 0q-35.333 0-59.666-24.333Q396-707.334 396-742.667t24.334-59.666q24.333-24.333 59.666-24.333t59.666 24.333Q564-778 564-742.667T539.666-683Q515.333-658.667 480-658.667Zm262.667 0q-35.333 0-59.667-24.333-24.333-24.334-24.333-59.667T683-802.333q24.334-24.333 59.667-24.333t59.666 24.333q24.333 24.333 24.333 59.666T802.333-683Q778-658.667 742.667-658.667Z"/></svg>