<svg xmlns="http://www.w3.org/2000/svg" height="40" viewBox="0 -960 960 960" width="40"><path d="M277.333-354q52.667 0 89.334-36.667 36.667-36.666 36.667-89.333t-36.667-89.333Q330-606 277.333-606q-52.666 0-89.333 36.667-36.667 36.666-36.667 89.333T188-390.667Q224.667-354 277.333-354Zm0 116.667q-100 0-171.333-71.334Q34.667-380 34.667-480T106-651.333q71.333-71.334 171.333-71.334 82.667 0 139.5 45 56.834 45 81.5 114.334H826l83 82-112.667 143.999-117.666-85L589-332l-64.666-66h-26.001Q478-327.333 418.167-282.333q-59.834 45-140.834 45Z"/></svg>