<svg xmlns="http://www.w3.org/2000/svg" height="40" viewBox="0 -960 960 960" width="40"><path d="M58.667-178.667v-83.666h413v83.666h-413Zm0-215.667v-82.999h211.666v82.999H58.667Zm0-213.666v-83.667h211.666V-608H58.667Zm785 429.333-160.334-163q-26.751 19-57.549 29-30.797 10-63.117 10-90.194 0-153.764-64-63.569-64-63.569-155.984 0-90.652 63.53-155.167 63.529-64.515 153.666-64.515T716.166-678q63.5 64.333 63.5 155.667 0 33.325-9.333 64.163Q761-427.333 742-399.333l159.333 162-57.666 58.666ZM562.51-386.333q55.49 0 94.49-39.489 39-39.489 39-96.521 0-57.032-38.843-96.678t-94.334-39.646q-55.49 0-94.657 39.718Q429-579.23 429-522.49q0 56.49 38.94 96.324 38.94 39.833 94.57 39.833Z"/></svg>