<svg xmlns="http://www.w3.org/2000/svg" height="40" viewBox="0 -960 960 960" width="40"><path d="M479.799-126.667q-28.132 0-47.965-20.034-19.833-20.034-19.833-48.166 0-28.132 20.033-47.965 20.034-19.834 48.167-19.834 28.132 0 47.965 20.034 19.833 20.034 19.833 48.166 0 28.133-20.033 47.966-20.034 19.833-48.167 19.833Zm0-285.334q-28.132 0-47.965-20.033-19.833-20.034-19.833-48.167 0-28.132 20.033-47.965 20.034-19.833 48.167-19.833 28.132 0 47.965 20.033 19.833 20.034 19.833 48.167 0 28.132-20.033 47.965-20.034 19.833-48.167 19.833Zm0-285.333q-28.132 0-47.965-20.034-19.833-20.034-19.833-48.166 0-28.133 20.033-47.966 20.034-19.833 48.167-19.833 28.132 0 47.965 20.034 19.833 20.034 19.833 48.166 0 28.132-20.033 47.966-20.034 19.833-48.167 19.833Z"/></svg>