<svg xmlns="http://www.w3.org/2000/svg" height="40" viewBox="0 -960 960 960" width="40"><path d="M480-64 301.334-242.667l61.333-61.332 76 76.667V-398h83.999l-.333 170.334L598-303.333l60.666 60.666L480-64ZM239.333-304.667 64-480l175.667-175.666 60.332 60.333-72.667 72.667H398v83.999H228.666l72.667 72-62 62Zm481.334 0L660.001-366l72.667-72.667H562.667v-83.999l169.667.333-72.333-72.334 60.666-60.666L896-480 720.667-304.667Zm-282-258-.333-170.001L365-660.001l-60.333-60.666L480-896l175.333 175.333L595-660.334l-72.334-72.334v170.001h-83.999Z"/></svg>