<svg xmlns="http://www.w3.org/2000/svg" height="40" viewBox="0 -960 960 960" width="40"><path d="M479.694-58.667q-86.667 0-163.507-33.353-76.84-33.354-133.827-90.34-56.986-56.987-90.34-133.914Q58.667-393.201 58.667-480q0-87.48 33.412-164.42 33.413-76.94 90.624-134.163 57.211-57.224 133.864-89.987 76.652-32.763 163.138-32.763 87.515 0 164.655 32.763 77.141 32.763 134.224 90 57.082 57.237 89.916 134.292 32.833 77.056 32.833 164.667 0 86.944-32.763 163.337-32.763 76.392-89.987 133.587-57.223 57.195-134.261 90.608-77.037 33.412-164.628 33.412Zm.306-83.999q140.513 0 238.923-98.744 98.411-98.744 98.411-238.59 0-140.513-98.411-238.923-98.41-98.411-238.923-98.411-139.846 0-238.59 98.411-98.744 98.41-98.744 238.923 0 139.846 98.744 238.59T480-142.666Zm0-8.667q-137.667 0-233.167-95.5T151.333-480q0-137.667 95.5-233.167T480-808.667q137.667 0 233.167 95.5T808.667-480q0 137.667-95.5 233.167T480-151.333Z"/></svg>