<svg xmlns="http://www.w3.org/2000/svg" height="40" viewBox="0 -960 960 960" width="40"><path d="M438.667-269.334h82.666l13.333-61.333q14.667-5.333 25.667-12 11-6.667 21-14.667l66 18.667 40-74.666-50.667-37.333q2-14.667 2-29.334t-2-29.334l50.667-37.333-40-74.666-66 18.667q-10-8-21-14.667t-25.667-12l-13.333-61.333h-82.666l-13.333 61.333q-14.667 5.333-25.667 12-11 6.667-21 14.667l-66-18.667-40 74.666 50.667 37.333q-2 14.667-2 29.334t2 29.334l-50.667 37.333 40 74.666 66-18.667q10 8 21 14.667t25.667 12l13.333 61.333ZM480-395.333q-36 0-60.333-24.334Q395.333-444 395.333-480t24.334-60.333Q444-564.667 480-564.667t60.333 24.334Q564.667-516 564.667-480t-24.334 60.333Q516-395.333 480-395.333ZM98.667-98.667v-762.666h762.666v762.666H98.667Z"/></svg>