<svg xmlns="http://www.w3.org/2000/svg" height="40" viewBox="0 -960 960 960" width="40"><path d="m480-570.667-58.666-58.666 62.333-62.334H318.334v-83.999h165.333L422-837.333l58-58.666 162.666 162.666L480-570.667Zm-202.914 504q-34.752 0-59.252-24.748-24.5-24.747-24.5-59.499t24.748-59.252q24.747-24.5 59.499-24.5 34.753 0 59.252 24.747 24.5 24.748 24.5 59.5 0 34.752-24.747 59.252-24.748 24.5-59.5 24.5Zm417.333 0q-34.752 0-59.252-24.748-24.5-24.747-24.5-59.499t24.748-59.252q24.748-24.5 59.5-24.5 34.752 0 59.252 24.747 24.5 24.748 24.5 59.5 0 34.752-24.748 59.252t-59.5 24.5ZM30.668-816v-84H166l176.667 373.334h289.138L794.667-816H890L684.667-438h-360l-44 80h498v84H142.334l117.667-222-146.667-320H30.668Z"/></svg>